# This file uses centimeters as units for non-parametric coordinates.

mtllib Hand.mtl
g default1
v -0.527519 0.546766 1.487435
v -0.539524 -0.589413 1.490951
v 0.503528 -0.600396 1.503525
v 0.515533 0.535783 1.500007
v -0.491522 0.537114 -1.507043
v -0.503527 -0.599064 -1.503526
v 0.539524 -0.610045 -1.490952
v 0.551529 0.526134 -1.494469
vt 0.810749 0.385914
vt 0.811271 0.499729
vt 0.759676 0.499733
vt 0.759154 0.385918
vt 0.686919 0.378174
vt 0.749925 0.378174
vt 0.749289 0.500739
vt 0.686282 0.500739
vt 0.747193 0.001975
vt 0.748349 0.364560
vt 0.693041 0.364662
vt 0.691885 0.002077
vt 0.752226 0.003554
vt 0.753944 0.372404
vt 0.690567 0.378607
vt 0.688849 0.009758
vt 0.756093 0.006957
vt 0.756694 0.363210
vt 0.689552 0.364713
vt 0.688950 0.008460
vt 0.692350 0.372208
vt 0.697119 0.006768
vt 0.755237 0.007035
vt 0.750468 0.372475
vn -0.012019 0.003223 0.999923
vn -0.012019 0.003223 0.999923
vn -0.012019 0.003223 0.999923
vn -0.012019 0.003223 0.999923
vn 0.012020 -0.003222 -0.999923
vn 0.012020 -0.003222 -0.999923
vn 0.012020 -0.003222 -0.999923
vn 0.012020 -0.003222 -0.999923
vn -0.999872 0.010527 -0.012054
vn -0.999872 0.010527 -0.012054
vn -0.999872 0.010527 -0.012054
vn -0.999872 0.010527 -0.012054
vn -0.010565 -0.999939 0.003095
vn -0.010565 -0.999939 0.003095
vn -0.010565 -0.999939 0.003095
vn -0.010565 -0.999939 0.003095
vn 0.999872 -0.010527 0.012053
vn 0.999872 -0.010527 0.012053
vn 0.999872 -0.010527 0.012053
vn 0.999872 -0.010527 0.012053
vn 0.010565 0.999939 -0.003095
vn 0.010565 0.999939 -0.003095
vn 0.010565 0.999939 -0.003095
vn 0.010565 0.999939 -0.003095
s off
g Mesh initialShadingGroup polySurface5 polySurface10 polySurface1
f 1/1/1 2/2/2 3/3/3 4/4/4
f 5/5/5 8/6/6 7/7/7 6/8/8
f 1/9/9 5/10/10 6/11/11 2/12/12
f 2/13/13 6/14/14 7/15/15 3/16/16
f 3/17/17 7/18/18 8/19/19 4/20/20
f 5/21/21 1/22/22 4/23/23 8/24/24
