# This file uses centimeters as units for non-parametric coordinates.

mtllib Barrel_L.mtl
g default1
v 0.114804 0.799998 -0.277163
v 0.212131 0.000000 -0.212132
v -0.212135 0.799998 -0.212132
v 0.212131 0.799998 0.212132
v 0.193460 0.779998 -0.193461
v 0.282028 0.799998 0.000000
v 0.277162 0.799998 -0.114805
v 0.260560 0.799998 -0.107928
v -0.277165 0.799998 0.114805
v -0.277165 0.000000 -0.114805
v -0.114805 0.000000 -0.277163
v 0.299998 0.000000 0.000000
v 0.114804 0.000000 0.277163
v 0.299998 0.799998 0.000000
v 0.336781 0.399999 0.139499
v -0.139505 0.399999 -0.336782
v -0.139505 0.399999 0.336782
v -0.114805 0.000000 0.277163
vt 0.161246 0.568285
vt 0.356245 0.763284
vt 0.161246 0.763284
vt 0.120860 0.665784
vt 0.406567 0.665784
vt 0.369931 0.554599
vt 0.415986 0.665784
vt 0.404017 0.725957
vt 0.318920 0.811055
vt 0.395315 0.722353
vt 0.386135 0.718551
vt 0.396631 0.665784
vt 0.406567 0.665784
vt 0.406567 0.665784
vt 0.395314 0.722353
vt 0.386135 0.718551
vt 0.395314 0.722353
vt 0.363271 0.770310
vt 0.356245 0.763284
vt 0.311512 0.793174
vt 0.258745 0.803669
vt 0.205979 0.793174
vt 0.440262 0.241304
vt 0.440262 0.087701
vt 0.500939 0.087701
vt 0.589024 0.665759
vt 0.600993 0.725932
vt 0.686090 0.811029
vt 0.873653 0.718525
vt 0.873653 0.612992
vt 0.746264 0.527873
vt 0.648764 0.568259
vt 0.648764 0.763258
vt 0.743644 0.241304
vt 0.804320 0.241304
vt 0.804320 0.394907
vt 0.076205 0.394907
vt 0.015528 0.394907
vt 0.015528 0.241304
vt 0.986349 0.394907
vt 0.925673 0.394907
vt 0.925673 0.241304
vt 0.986349 0.087701
vt 0.986349 0.241304
vt 0.925673 0.241304
vt 0.925673 0.241304
vt 0.986349 0.241304
vt 0.986349 0.394907
vt 0.864997 0.241304
vt 0.864997 0.087701
vt 0.925673 0.087701
vt 0.925673 0.394907
vt 0.864997 0.394907
vt 0.864997 0.241304
vt 0.136881 0.241304
vt 0.136881 0.087701
vt 0.197557 0.087701
vt 0.318910 0.018024
vt 0.318910 0.087701
vt 0.258234 0.087701
vt 0.440262 0.394907
vt 0.379586 0.394907
vt 0.379586 0.241304
vt 0.258234 0.241304
vt 0.318910 0.241304
vt 0.318910 0.394907
vt 0.197557 0.394907
vt 0.136881 0.394907
vt 0.136881 0.241304
vt 0.076205 0.241304
vt 0.136881 0.241304
vt 0.136881 0.394907
vt 0.622291 0.241304
vt 0.682968 0.241304
vt 0.682968 0.394907
vt 0.682968 0.087701
vt 0.682968 0.241304
vt 0.622291 0.241304
vt 0.622291 0.394907
vt 0.561615 0.394907
vt 0.561615 0.241304
vt 0.561615 0.087701
vt 0.561615 0.241304
vt 0.500939 0.241304
vn 0.000000 1.000000 0.000000
vn 0.000000 1.000000 0.000000
vn 0.000000 1.000000 0.000000
vn 0.000000 1.000000 0.000000
vn 0.000000 1.000000 0.000000
vn 0.000000 1.000000 0.000000
vn 0.000000 1.000000 0.000000
vn 0.000000 1.000000 0.000000
vn 0.000000 1.000000 0.000000
vn 0.000000 1.000000 0.000000
vn -0.906325 0.382196 0.180279
vn -0.906326 0.382195 0.180279
vn -0.906325 0.382196 0.180279
vn -0.906325 0.382196 0.180279
vn -0.906325 0.382197 0.180279
vn -0.906325 0.382196 0.180279
vn -0.768345 0.382196 0.513392
vn -0.768345 0.382195 0.513393
vn -0.768345 0.382196 0.513392
vn 0.000000 1.000000 0.000000
vn 0.000000 1.000000 0.000000
vn 0.000000 1.000000 0.000000
vn -0.980785 0.000000 0.195090
vn -0.955451 -0.225817 0.190050
vn -0.968336 -0.158824 0.192614
vn 0.000000 -1.000000 0.000000
vn 0.000000 -1.000000 0.000000
vn 0.000000 -1.000000 0.000000
vn 0.000000 -1.000000 0.000000
vn 0.000000 -1.000000 0.000000
vn 0.000000 -1.000000 0.000000
vn 0.000000 -1.000000 0.000000
vn 0.000000 -1.000000 0.000000
vn 0.555571 0.000000 0.831469
vn 0.555571 0.000000 0.831469
vn 0.548519 0.158824 0.820915
vn 0.820916 0.158824 -0.548518
vn 0.809992 0.225818 -0.541220
vn 0.831470 0.000000 -0.555570
vn 0.968336 0.158824 -0.192613
vn 0.955451 0.225817 -0.190051
vn 0.980785 0.000000 -0.195090
vn 0.968336 -0.158824 -0.192613
vn 0.980785 0.000000 -0.195090
vn 0.980785 0.000000 -0.195090
vn 0.980785 0.000000 -0.195090
vn 0.980785 0.000000 -0.195090
vn 0.968336 0.158824 -0.192613
vn 0.980785 0.000000 0.195090
vn 0.955451 -0.225817 0.190051
vn 0.968336 -0.158824 0.192614
vn 0.968336 0.158824 0.192614
vn 0.955451 0.225817 0.190051
vn 0.980785 0.000000 0.195090
vn 0.195090 0.000000 -0.980785
vn 0.190051 -0.225817 -0.955451
vn 0.192614 -0.158824 -0.968336
vn -0.531450 -0.291456 -0.795371
vn -0.548518 -0.158824 -0.820916
vn -0.541220 -0.225817 -0.809993
vn -0.968336 0.158824 -0.192614
vn -0.955451 0.225817 -0.190050
vn -0.980785 0.000000 -0.195090
vn -0.555570 0.000000 -0.831470
vn -0.555570 0.000000 -0.831470
vn -0.548518 0.158824 -0.820916
vn 0.192614 0.158824 -0.968336
vn 0.190051 0.225817 -0.955451
vn 0.195090 0.000000 -0.980785
vn 0.555570 0.000000 -0.831470
vn 0.555570 0.000000 -0.831470
vn 0.548518 0.158824 -0.820916
vn -0.195090 0.000000 0.980785
vn -0.195090 0.000000 0.980785
vn -0.192614 0.158824 0.968336
vn -0.192614 -0.158824 0.968336
vn -0.195090 0.000000 0.980785
vn -0.195090 0.000000 0.980785
vn -0.548519 0.158824 0.820915
vn -0.541220 0.225817 0.809992
vn -0.555571 0.000000 0.831469
vn -0.820916 -0.158824 0.548518
vn -0.831470 0.000000 0.555570
vn -0.831470 0.000000 0.555570
s off
g Barrel1 Mesh2 Model initialShadingGroup polySurface3 polySurface4 polySurface1
f 4/1/1 5/2/2 3/3/3 9/4/4
f 6/5/5 4/6/6 14/7/7 7/8/8 1/9/9 8/10/10
f 5/11/11 4/12/12 6/13/13
f 6/14/14 8/15/15 5/16/16
f 8/17/17 1/18/18 5/19/19
f 5/20/20 1/21/21 3/22/22
f 9/23/23 10/24/24 18/25/25
f 11/28/26 18/26/27 10/27/28
f 2/29/29 12/30/30 13/31/31 18/32/32 11/33/33
f 13/34/34 15/35/35 4/36/36
f 1/37/37 7/38/38 2/39/39
f 7/40/40 14/41/41 15/42/42
f 12/43/43 2/44/44 15/45/45
f 15/46/46 2/47/47 7/48/48
f 15/49/49 13/50/50 12/51/51
f 14/52/52 4/53/53 15/54/54
f 16/55/55 2/56/56 11/57/57
f 11/58/58 10/59/59 16/60/60
f 9/61/61 3/62/62 10/63/63
f 16/64/64 10/65/65 3/66/66
f 3/67/67 1/68/68 16/69/69
f 2/70/70 16/71/71 1/72/72
f 17/73/73 13/74/74 4/75/75
f 18/76/76 13/77/77 17/78/78
f 4/79/79 9/80/80 17/81/81
f 18/82/82 17/83/83 9/84/84
