# This file uses centimeters as units for non-parametric coordinates.

mtllib Crate_M.mtl
g default1
v 0.329995 0.020000 -0.329999
v 0.339995 0.100000 0.339999
v -0.330003 0.020000 0.329999
v 0.339995 0.100000 -0.339999
v 0.339995 0.599999 0.339999
v -0.340003 0.100000 -0.339999
v -0.340003 0.100000 0.339999
v 0.339995 0.599999 -0.339999
v 0.349995 0.699999 -0.349999
v 0.349995 0.699999 0.349999
v -0.340003 0.599999 -0.339999
v -0.350003 0.699999 -0.349999
v -0.340003 0.599999 0.339999
v -0.350003 0.699999 0.349999
v -0.330003 0.699999 -0.329999
v 0.329995 0.679999 0.329999
v 0.329995 0.679999 -0.329999
v -0.330003 0.699999 0.329999
v -0.330003 0.020000 -0.329999
v 0.329995 0.020000 0.329999
vt 0.649903 0.020464
vt 0.649903 0.060706
vt 0.336907 0.060706
vt 0.336907 0.020464
vt 0.665610 0.660724
vt 0.665610 0.700966
vt 0.352614 0.700966
vt 0.352614 0.660724
vt 0.979735 0.660510
vt 0.979735 0.700752
vt 0.666738 0.700752
vt 0.666738 0.660510
vt 0.336564 0.020396
vt 0.336564 0.060638
vt 0.023568 0.060638
vt 0.023568 0.020396
vt 0.645431 0.065177
vt 0.645431 0.288746
vt 0.341378 0.288746
vt 0.341378 0.065177
vt 0.661139 0.705437
vt 0.661139 0.929006
vt 0.357085 0.929006
vt 0.357085 0.705437
vt 0.975263 0.705224
vt 0.975263 0.928793
vt 0.671209 0.928793
vt 0.671210 0.705224
vt 0.332092 0.065110
vt 0.332092 0.288679
vt 0.028039 0.288679
vt 0.028039 0.065110
vt 0.649903 0.293217
vt 0.649903 0.333460
vt 0.336907 0.333460
vt 0.336907 0.293217
vt 0.665610 0.933477
vt 0.665610 0.973720
vt 0.352614 0.973720
vt 0.352614 0.933477
vt 0.979735 0.933264
vt 0.979735 0.973506
vt 0.666738 0.973506
vt 0.666738 0.933264
vt 0.336564 0.293150
vt 0.336564 0.333392
vt 0.023568 0.333392
vt 0.023568 0.293150
vt 0.320803 0.349474
vt 0.320803 0.630800
vt 0.039476 0.630800
vt 0.039476 0.349474
vt 0.320803 0.630800
vt 0.320803 0.349474
vt 0.326429 0.343847
vt 0.033850 0.343847
vt 0.326429 0.343847
vt 0.320803 0.349474
vt 0.326430 0.343850
vt 0.033850 0.343847
vt 0.033850 0.636426
vt 0.335296 0.645295
vt 0.024984 0.645292
vt 0.024984 0.334981
vt 0.326429 0.343847
vt 0.326429 0.636426
vt 0.320803 0.630800
vt 0.039476 0.630800
vt 0.320803 0.630800
vt 0.326429 0.636426
vt 0.964871 0.641968
vt 0.964871 0.360641
vt 0.683544 0.360641
vt 0.683544 0.641968
vn 1.000000 0.000000 0.000000
vn 1.000000 0.000000 0.000000
vn 1.000000 0.000000 0.000000
vn 1.000000 0.000000 0.000000
vn 0.000000 0.000000 -1.000000
vn 0.000000 0.000000 -1.000000
vn 0.000000 0.000000 -1.000000
vn 0.000000 0.000000 -1.000000
vn -1.000000 0.000000 -0.000000
vn -1.000000 0.000000 -0.000000
vn -1.000000 0.000000 -0.000000
vn -1.000000 0.000000 -0.000000
vn 0.000000 0.000000 1.000000
vn 0.000000 0.000000 1.000000
vn 0.000000 0.000000 1.000000
vn 0.000000 0.000000 1.000000
vn 1.000000 0.000000 0.000000
vn 1.000000 0.000000 0.000000
vn 1.000000 0.000000 0.000000
vn 1.000000 0.000000 0.000000
vn 0.000000 0.000000 -1.000000
vn 0.000000 0.000000 -1.000000
vn 0.000000 0.000000 -1.000000
vn 0.000000 0.000000 -1.000000
vn -1.000000 0.000000 0.000000
vn -1.000000 0.000000 0.000000
vn -1.000000 0.000000 0.000000
vn -1.000000 0.000000 0.000000
vn 0.000000 0.000000 1.000000
vn 0.000000 0.000000 1.000000
vn 0.000000 0.000000 1.000000
vn 0.000000 0.000000 1.000000
vn 1.000000 0.000000 0.000000
vn 1.000000 0.000000 0.000000
vn 1.000000 0.000000 0.000000
vn 1.000000 0.000000 0.000000
vn 0.000000 0.000000 -1.000000
vn 0.000000 0.000000 -1.000000
vn 0.000000 0.000000 -1.000000
vn 0.000000 0.000000 -1.000000
vn -1.000000 0.000000 -0.000000
vn -1.000000 0.000000 -0.000000
vn -1.000000 0.000000 -0.000000
vn -1.000000 0.000000 -0.000000
vn 0.000000 0.000000 1.000000
vn 0.000000 0.000000 1.000000
vn 0.000000 0.000000 1.000000
vn 0.000000 0.000000 1.000000
vn 0.000000 1.000000 0.000000
vn 0.000000 1.000000 0.000000
vn 0.000000 1.000000 0.000000
vn 0.000000 1.000000 0.000000
vn -1.000000 0.000000 -0.000000
vn -1.000000 0.000000 -0.000000
vn -1.000000 0.000000 -0.000000
vn 0.000000 0.000000 -1.000000
vn 0.000000 0.000000 -1.000000
vn 0.000000 0.000000 -1.000000
vn 0.000000 1.000000 0.000000
vn 0.000000 1.000000 0.000000
vn 0.000000 1.000000 0.000000
vn 0.000000 1.000000 0.000000
vn 0.000000 1.000000 0.000000
vn 0.000000 1.000000 0.000000
vn -1.000000 0.000000 -0.000000
vn -1.000000 0.000000 -0.000000
vn -1.000000 0.000000 -0.000000
vn 0.000000 0.000000 1.000000
vn 0.000000 0.000000 1.000000
vn 0.000000 0.000000 1.000000
vn 0.000000 -1.000000 0.000000
vn 0.000000 -1.000000 0.000000
vn 0.000000 -1.000000 0.000000
vn 0.000000 -1.000000 0.000000
s off
g Mesh3 Model SquareBox01_1 initialShadingGroup polySurface4 polySurface5 polySurface1
f 1/1/1 4/2/2 2/3/3 20/4/4
f 19/5/5 6/6/6 4/7/7 1/8/8
f 3/9/9 7/10/10 6/11/11 19/12/12
f 20/13/13 2/14/14 7/15/15 3/16/16
f 4/17/17 8/18/18 5/19/19 2/20/20
f 6/21/21 11/22/22 8/23/23 4/24/24
f 7/25/25 13/26/26 11/27/27 6/28/28
f 2/29/29 5/30/30 13/31/31 7/32/32
f 8/33/33 9/34/34 10/35/35 5/36/36
f 11/37/37 12/38/38 9/39/39 8/40/40
f 13/41/41 14/42/42 12/43/43 11/44/44
f 5/45/45 10/46/46 14/47/47 13/48/48
f 16/49/49 17/50/50 15/51/51 18/52/52
f 17/53/53 16/54/54 10/55/55
f 18/56/56 10/57/57 16/58/58
f 10/59/59 18/60/60 15/61/61 9/62/62 12/63/63 14/64/64
f 10/65/65 9/66/66 17/67/67
f 15/68/68 17/69/69 9/70/70
f 19/71/71 1/72/72 20/73/73 3/74/74
