# This file uses centimeters as units for non-parametric coordinates.

mtllib Sack_M.mtl
g default
v -0.167194 -0.003199 0.097171
v -0.297789 0.145496 0.065793
v -0.136005 0.145496 0.186163
v -0.138711 0.262476 0.194937
v -0.275239 0.405999 0.053831
v -0.327106 0.148335 -0.010289
v -0.288760 0.418105 -0.027014
v -0.132754 0.280999 -0.207828
v -0.310460 0.156000 -0.074409
v -0.288249 0.042949 -0.010289
v -0.219497 0.030429 -0.134596
v 0.001000 0.004128 -0.010998
v 0.289609 0.044237 -0.010289
v 0.299789 0.145496 0.065793
v 0.216006 0.048041 0.116069
v 0.001000 -0.003199 0.128165
v 0.001000 0.039259 0.179236
v 0.140718 0.262476 0.194937
v 0.001000 0.145496 0.204634
v -0.124000 0.375154 0.174201
v 0.239143 0.260790 0.129391
v 0.126000 0.375154 0.174201
v 0.276497 0.405999 0.053831
v 0.333270 0.267625 -0.010410
v 0.283967 0.418105 -0.010289
v 0.305081 0.280999 -0.079023
v 0.119238 0.530999 -0.185778
v 0.138005 0.156000 -0.194780
v 0.134761 0.280999 -0.207828
v -0.235491 0.542588 -0.098399
v -0.235491 0.542588 0.015880
v 0.119238 0.530999 0.109061
v 0.185591 0.700250 -0.002474
v 0.239937 0.661753 -0.058168
v -0.117248 0.530999 -0.185778
v -0.117248 0.530999 0.109061
v -0.183600 0.700250 -0.002474
v 0.000995 0.758819 -0.064828
v 0.282536 0.781385 -0.048102
v 0.194521 0.718499 -0.134296
v -0.278596 0.811154 -0.070409
v -0.182704 0.710699 -0.134296
v 0.215683 0.033675 -0.134596
v 0.196881 -0.001653 0.010998
v 0.153523 0.002961 -0.135836
v -0.136005 0.030197 -0.161228
v 0.329697 0.146661 -0.027014
vt 0.179734 0.140644
vt 0.206380 0.152621
vt 0.180042 0.254962
vt 0.180042 0.254962
vt 0.132669 0.249602
vt 0.179734 0.140644
vt 0.180042 0.254962
vt 0.360156 0.255897
vt 0.264447 0.158141
vt 0.252058 0.385163
vt 0.253539 0.256168
vt 0.360156 0.255897
vt 0.188249 0.540019
vt 0.173331 0.388918
vt 0.252058 0.385163
vt 0.173331 0.388918
vt 0.188249 0.540019
vt 0.132669 0.249602
vt 0.205604 0.545135
vt 0.197898 0.401866
vt 0.133525 0.393843
vt 0.278697 0.405339
vt 0.197898 0.401866
vt 0.142037 0.548941
vt 0.197898 0.401866
vt 0.278697 0.405339
vt 0.281034 0.279112
vt 0.289958 0.166741
vt 0.180884 0.140633
vt 0.132556 0.249978
vt 0.206411 0.272126
vt 0.237623 0.085327
vt 0.339409 0.046638
vt 0.333538 0.014833
vt 0.495746 0.011790
vt 0.333538 0.014833
vt 0.339409 0.046638
vt 0.495743 0.043471
vt 0.656728 0.043359
vt 0.645395 0.075804
vt 0.739677 0.099248
vt 0.645395 0.075804
vt 0.656728 0.043359
vt 0.725022 0.159794
vt 0.780564 0.167657
vt 0.811317 0.255907
vt 0.645395 0.075804
vt 0.495514 0.068656
vt 0.495743 0.043471
vt 0.495743 0.043471
vt 0.495514 0.068656
vt 0.349768 0.074231
vt 0.349768 0.074231
vt 0.495411 0.156009
vt 0.495567 0.255942
vt 0.359587 0.101367
vt 0.495608 0.098952
vt 0.495411 0.156009
vt 0.495608 0.098952
vt 0.633438 0.104745
vt 0.629003 0.157443
vt 0.630687 0.256180
vt 0.629003 0.157443
vt 0.725022 0.159794
vt 0.629003 0.157443
vt 0.630687 0.256180
vt 0.495567 0.255942
vt 0.360156 0.255897
vt 0.361313 0.156526
vt 0.495796 0.382917
vt 0.361277 0.383232
vt 0.360156 0.255897
vt 0.361277 0.383232
vt 0.495796 0.382917
vt 0.495974 0.522586
vt 0.495974 0.522586
vt 0.495796 0.382917
vt 0.630208 0.383121
vt 0.630208 0.383121
vt 0.739236 0.384799
vt 0.726481 0.527631
vt 0.803168 0.536746
vt 0.726481 0.527631
vt 0.739236 0.384799
vt 0.871297 0.389494
vt 0.854573 0.548570
vt 0.803168 0.536746
vt 0.792239 0.544873
vt 0.855039 0.549713
vt 0.871511 0.389760
vt 0.855039 0.549713
vt 0.792239 0.544873
vt 0.763497 0.671026
vt 0.712934 0.527233
vt 0.729239 0.398879
vt 0.622025 0.394807
vt 0.616651 0.282893
vt 0.622025 0.394807
vt 0.729239 0.398879
vt 0.498954 0.397555
vt 0.378410 0.394127
vt 0.205604 0.545135
vt 0.285376 0.542915
vt 0.235290 0.674438
vt 0.235290 0.674438
vt 0.188249 0.540019
vt 0.136778 0.551671
vt 0.120481 0.389865
vt 0.136778 0.551671
vt 0.188249 0.540019
vt 0.221761 0.680433
vt 0.361277 0.383232
vt 0.368878 0.523792
vt 0.265076 0.529238
vt 0.496153 0.656779
vt 0.495974 0.522586
vt 0.622957 0.523314
vt 0.630208 0.383121
vt 0.622957 0.523314
vt 0.495974 0.522586
vt 0.769821 0.672754
vt 0.700936 0.661261
vt 0.726481 0.527631
vt 0.700936 0.661261
vt 0.769821 0.672754
vt 0.748736 0.793528
vt 0.748736 0.793528
vt 0.769821 0.672754
vt 0.816618 0.688539
vt 0.846186 0.695531
vt 0.763497 0.671026
vt 0.749068 0.793041
vt 0.613347 0.526797
vt 0.499387 0.662249
vt 0.378410 0.394127
vt 0.385053 0.531913
vt 0.499191 0.524179
vt 0.385053 0.531913
vt 0.285376 0.542915
vt 0.305585 0.666113
vt 0.142037 0.548941
vt 0.180055 0.687091
vt 0.265076 0.529238
vt 0.290715 0.664992
vt 0.221761 0.680433
vt 0.290715 0.664992
vt 0.265076 0.529238
vt 0.368878 0.523792
vt 0.496153 0.656779
vt 0.382446 0.658168
vt 0.368878 0.523792
vt 0.382446 0.658168
vt 0.496153 0.656779
vt 0.496111 0.771159
vt 0.700936 0.661261
vt 0.609658 0.657042
vt 0.622957 0.523314
vt 0.688824 0.774813
vt 0.604829 0.770828
vt 0.609658 0.657042
vt 0.246637 0.788896
vt 0.290715 0.664992
vt 0.302348 0.780594
vt 0.313186 0.849669
vt 0.272175 0.896344
vt 0.246637 0.788896
vt 0.626411 0.933177
vt 0.618351 0.900229
vt 0.722842 0.891662
vt 0.748736 0.793528
vt 0.722842 0.891662
vt 0.678303 0.843286
vt 0.664986 0.833800
vt 0.716025 0.882165
vt 0.749068 0.793041
vt 0.716025 0.882165
vt 0.619143 0.900364
vt 0.626470 0.933136
vt 0.384188 0.901899
vt 0.374399 0.934420
vt 0.496254 0.933507
vt 0.250604 0.787334
vt 0.276051 0.893901
vt 0.317414 0.844706
vt 0.276051 0.893901
vt 0.250604 0.787334
vt 0.207919 0.807563
vt 0.599190 0.767877
vt 0.499813 0.768543
vt 0.496696 0.851289
vt 0.499813 0.768543
vt 0.599190 0.767877
vt 0.603722 0.662371
vt 0.693427 0.664291
vt 0.679942 0.769151
vt 0.749068 0.793041
vt 0.603722 0.662371
vt 0.499387 0.662249
vt 0.499813 0.768543
vt 0.395160 0.663016
vt 0.305585 0.666113
vt 0.306916 0.779381
vt 0.605344 0.849394
vt 0.618351 0.900229
vt 0.495972 0.898643
vt 0.495972 0.898643
vt 0.384999 0.901333
vt 0.386492 0.852342
vt 0.498954 0.397555
vt 0.498605 0.282804
vt 0.616651 0.282893
vt 0.724634 0.168305
vt 0.621290 0.162738
vt 0.616651 0.282893
vt 0.657418 0.045536
vt 0.642256 0.076706
vt 0.734932 0.101066
vt 0.642256 0.076706
vt 0.657418 0.045536
vt 0.496178 0.046166
vt 0.496178 0.046166
vt 0.206411 0.272126
vt 0.215046 0.157572
vt 0.180884 0.140633
vt 0.350802 0.073058
vt 0.496906 0.068214
vt 0.498605 0.282804
vt 0.495914 0.161592
vt 0.369737 0.165656
vt 0.496906 0.068214
vt 0.369737 0.165656
vt 0.289958 0.166741
vt 0.380435 0.281763
vt 0.369737 0.165656
vt 0.380435 0.281763
vt 0.734932 0.101066
vt 0.766548 0.080016
vt 0.657418 0.045536
vt 0.821044 0.146706
vt 0.778836 0.166151
vt 0.789651 0.275960
vt 0.853222 0.257533
vt 0.798925 0.403949
vt 0.728689 0.281481
vt 0.729239 0.398879
vt 0.728689 0.281481
vt 0.798925 0.403949
vt 0.871511 0.389760
vt 0.853222 0.257533
vt 0.853813 0.257085
vt 0.871297 0.389494
vt 0.818196 0.388180
vt 0.803168 0.536746
vt 0.818196 0.388180
vt 0.871297 0.389494
vt 0.739236 0.384799
vt 0.818196 0.388180
vt 0.803168 0.536746
vt 0.725022 0.159794
vt 0.736842 0.256763
vt 0.630687 0.256180
vt 0.811317 0.255907
vt 0.736842 0.256763
vt 0.725022 0.159794
vt 0.823293 0.146252
vt 0.853813 0.257085
vt 0.811317 0.255907
vn -0.805485 -0.548601 0.224121
vn -0.759014 -0.509534 0.405305
vn -0.797504 -0.172807 0.578035
vn -0.797504 -0.172807 0.578035
vn -0.952912 -0.191000 0.235536
vn -0.805485 -0.548601 0.224121
vn -0.358493 -0.136353 0.923521
vn -0.626498 -0.076383 0.775671
vn -0.587522 -0.358678 0.725374
vn -0.642223 0.042130 0.765359
vn -0.626498 -0.076383 0.775671
vn -0.358493 -0.136353 0.923521
vn -0.795673 0.259049 0.547539
vn -0.802871 0.040671 0.594765
vn -0.642223 0.042130 0.765359
vn -0.961015 0.108339 0.254388
vn -0.802871 0.040671 0.594765
vn -0.795673 0.259049 0.547539
vn -0.807730 0.182672 -0.560539
vn -0.775372 0.048343 -0.629652
vn -0.968941 0.104166 -0.224283
vn -0.596874 0.040404 -0.801317
vn -0.775372 0.048343 -0.629652
vn -0.807730 0.182672 -0.560539
vn -0.775372 0.048343 -0.629652
vn -0.596874 0.040404 -0.801317
vn -0.574950 -0.019050 -0.817967
vn -0.808455 -0.556190 -0.192493
vn -0.962766 -0.180560 -0.201197
vn -0.806712 -0.155398 -0.570146
vn -0.476475 -0.878687 0.029678
vn -0.125629 -0.984587 0.121676
vn -0.164527 -0.986214 0.017711
vn -0.000000 -1.000000 0.000000
vn -0.164527 -0.986214 0.017711
vn -0.125629 -0.984587 0.121676
vn 0.000000 -0.995409 -0.095713
vn 0.153799 -0.982731 -0.102884
vn 0.205608 -0.954100 0.217759
vn 0.533609 -0.784923 0.314894
vn 0.205608 -0.954100 0.217759
vn 0.153799 -0.982731 -0.102884
vn 0.564669 -0.341137 0.751515
vn 0.729478 -0.439952 0.523740
vn 0.790999 -0.179417 0.584918
vn 0.205608 -0.954100 0.217759
vn -0.000000 -0.972840 0.231479
vn 0.000000 -0.995409 -0.095713
vn 0.000000 -0.995409 -0.095713
vn -0.000000 -0.972840 0.231479
vn -0.188354 -0.961849 0.198416
vn -0.292590 -0.399715 0.868688
vn -0.032111 -0.441441 0.896716
vn 0.000002 -0.183300 0.983057
vn -0.224096 -0.744959 0.628344
vn 0.031670 -0.748600 0.662266
vn -0.032111 -0.441441 0.896716
vn 0.031670 -0.748600 0.662266
vn 0.281456 -0.743476 0.606652
vn 0.253121 -0.398499 0.881549
vn 0.362956 -0.140868 0.921097
vn 0.253121 -0.398499 0.881549
vn 0.564669 -0.341137 0.751515
vn 0.253121 -0.398499 0.881549
vn 0.362956 -0.140868 0.921097
vn 0.000002 -0.183300 0.983057
vn 0.000002 -0.183300 0.983057
vn -0.358493 -0.136353 0.923521
vn -0.292590 -0.399715 0.868688
vn -0.000000 0.042660 0.999090
vn -0.314065 0.112056 0.942765
vn -0.358493 -0.136353 0.923521
vn -0.314065 0.112056 0.942765
vn -0.000000 0.042660 0.999090
vn -0.000000 0.264063 0.964505
vn -0.000000 0.264063 0.964505
vn -0.000000 0.042660 0.999090
vn 0.314063 0.112062 0.942765
vn 0.314063 0.112062 0.942765
vn 0.642857 0.042844 0.764787
vn 0.573969 0.293669 0.764407
vn 0.790883 0.269333 0.549512
vn 0.573969 0.293669 0.764407
vn 0.642857 0.042844 0.764787
vn 0.965833 0.110667 0.234350
vn 0.948450 0.298631 0.106125
vn 0.790883 0.269333 0.549512
vn 0.806374 0.188210 -0.560659
vn 0.960308 0.277938 -0.023643
vn 0.973694 0.105796 -0.201812
vn 0.960308 0.277938 -0.023643
vn 0.806374 0.188210 -0.560659
vn 0.787218 0.114772 -0.605901
vn 0.594723 0.106658 -0.796824
vn 0.596874 0.040404 -0.801317
vn 0.346840 0.066995 -0.935529
vn 0.342339 -0.126689 -0.930996
vn 0.346840 0.066995 -0.935529
vn 0.596874 0.040404 -0.801317
vn -0.592933 0.105078 -0.798367
vn -0.807730 0.182672 -0.560539
vn -0.787845 0.107031 -0.606502
vn -0.795673 0.259049 0.547539
vn -0.935869 0.285496 0.206496
vn -0.961015 0.108339 0.254388
vn -0.935869 0.285496 0.206496
vn -0.795673 0.259049 0.547539
vn -0.715732 0.338942 0.610611
vn -0.314065 0.112056 0.942765
vn -0.277118 0.327412 0.903331
vn -0.567008 0.289122 0.771304
vn -0.000000 0.440203 0.897898
vn -0.000000 0.264063 0.964505
vn 0.277114 0.327428 0.903327
vn 0.314063 0.112062 0.942765
vn 0.277114 0.327428 0.903327
vn -0.000000 0.264063 0.964505
vn 0.720346 0.349816 0.598941
vn 0.551311 0.366439 0.749519
vn 0.573969 0.293669 0.764407
vn 0.551311 0.366439 0.749519
vn 0.720346 0.349816 0.598941
vn 0.652726 0.176049 0.736855
vn 0.652726 0.176049 0.736855
vn 0.720346 0.349816 0.598941
vn 0.931427 0.254043 0.260586
vn 0.977560 0.166009 -0.129679
vn 0.787218 0.114772 -0.605901
vn 0.746681 -0.040664 -0.663938
vn 0.318550 0.098515 -0.942773
vn -0.000000 0.124891 -0.992171
vn -0.000000 0.130572 -0.991439
vn -0.346840 0.066989 -0.935529
vn -0.318551 0.098493 -0.942775
vn -0.000000 0.124891 -0.992171
vn -0.318551 0.098493 -0.942775
vn -0.592933 0.105078 -0.798367
vn -0.583610 0.043822 -0.810851
vn -0.958903 0.253172 -0.128098
vn -0.984865 0.164720 -0.053936
vn -0.787845 0.107031 -0.606502
vn -0.567008 0.289122 0.771304
vn -0.528219 0.368063 0.765189
vn -0.715732 0.338942 0.610611
vn -0.528219 0.368063 0.765189
vn -0.567008 0.289122 0.771304
vn -0.277118 0.327412 0.903331
vn -0.000000 0.440203 0.897898
vn -0.237185 0.470848 0.849733
vn -0.277118 0.327412 0.903331
vn -0.237185 0.470848 0.849733
vn -0.000000 0.440203 0.897898
vn -0.000000 0.585871 0.810405
vn 0.551311 0.366439 0.749519
vn 0.237184 0.470852 0.849731
vn 0.277114 0.327428 0.903327
vn 0.429725 0.368525 0.824334
vn 0.093104 0.523745 0.846772
vn 0.237184 0.470852 0.849731
vn -0.528219 0.368063 0.765189
vn -0.411229 0.372286 0.832042
vn -0.598185 0.216818 0.771469
vn -0.214185 0.380683 0.899558
vn -0.290803 0.345373 0.892273
vn -0.598185 0.216818 0.771469
vn -0.064921 0.875039 0.479680
vn -0.021653 0.561337 0.827304
vn 0.331989 0.247141 0.910332
vn 0.652726 0.176049 0.736855
vn 0.331989 0.247141 0.910332
vn 0.212908 0.360223 0.908245
vn 0.184075 0.309011 -0.933075
vn 0.408840 0.305532 -0.859942
vn 0.746681 -0.040664 -0.663938
vn 0.408840 0.305532 -0.859942
vn -0.062810 0.640818 -0.765119
vn -0.070821 0.885708 -0.458809
vn 0.112041 0.606608 -0.787067
vn 0.200211 0.881864 -0.426886
vn 0.011127 0.850805 -0.525363
vn -0.692711 -0.066713 -0.718123
vn -0.246466 0.203256 -0.947598
vn -0.169394 0.226686 -0.959124
vn -0.246466 0.203256 -0.947598
vn -0.692711 -0.066713 -0.718123
vn -0.962658 -0.127842 -0.238634
vn 0.078277 0.258006 -0.962967
vn -0.000000 0.255425 -0.966829
vn 0.014876 0.491714 -0.870630
vn -0.000000 0.255425 -0.966829
vn 0.078277 0.258006 -0.962967
vn 0.256653 0.157466 -0.953590
vn 0.585099 0.044268 -0.809753
vn 0.444246 0.045478 -0.894750
vn 0.746681 -0.040664 -0.663938
vn 0.256653 0.157466 -0.953590
vn -0.000000 0.130572 -0.991439
vn -0.000000 0.255425 -0.966829
vn -0.256654 0.157458 -0.953591
vn -0.583610 0.043822 -0.810851
vn -0.441128 0.070098 -0.894702
vn -0.003896 0.550614 0.834751
vn -0.021653 0.561337 0.827304
vn -0.003561 0.550282 0.834971
vn -0.003561 0.550282 0.834971
vn 0.029267 0.530423 0.847228
vn 0.015397 0.539822 0.841638
vn -0.000000 -0.004336 -0.999991
vn 0.000000 -0.209256 -0.977861
vn -0.338289 -0.123055 -0.932962
vn 0.545862 -0.361036 -0.756100
vn 0.198463 -0.443637 -0.873956
vn 0.342339 -0.126689 -0.930996
vn 0.133246 -0.983656 0.121101
vn 0.118335 -0.986255 -0.115314
vn 0.459017 -0.848263 -0.264109
vn 0.118335 -0.986255 -0.115314
vn 0.133246 -0.983656 0.121101
vn 0.000000 -0.995153 0.098336
vn -0.806712 -0.155398 -0.570146
vn -0.739180 -0.528814 -0.417096
vn -0.808455 -0.556190 -0.192493
vn -0.102352 -0.990183 -0.095198
vn -0.000000 -0.983210 -0.182476
vn 0.000000 -0.995153 0.098336
vn 0.000000 -0.209256 -0.977861
vn 0.010165 -0.511040 -0.859497
vn -0.137481 -0.456155 -0.879217
vn -0.009275 -0.791523 -0.611069
vn -0.132091 -0.835603 -0.533217
vn -0.137481 -0.456155 -0.879217
vn -0.338289 -0.123055 -0.932962
vn -0.137481 -0.456155 -0.879217
vn -0.508925 -0.371351 -0.776591
vn -0.137481 -0.456155 -0.879217
vn -0.338289 -0.123055 -0.932962
vn 0.000000 -0.209256 -0.977861
vn 0.459017 -0.848263 -0.264109
vn 0.484127 -0.874973 0.006636
vn 0.133246 -0.983656 0.121101
vn 0.815046 -0.558320 -0.154852
vn 0.752977 -0.540143 -0.375861
vn 0.800846 -0.159679 -0.577191
vn 0.775372 0.048328 -0.629653
vn 0.800846 -0.159679 -0.577191
vn 0.574797 -0.030035 -0.817745
vn 0.596874 0.040404 -0.801317
vn 0.574797 -0.030035 -0.817745
vn 0.342339 -0.126689 -0.930996
vn 0.775372 0.048328 -0.629653
vn 0.973694 0.105796 -0.201812
vn 0.967800 -0.181576 -0.174334
vn 0.960110 -0.191215 0.204026
vn 0.965833 0.110667 0.234350
vn 0.802773 0.042047 0.594800
vn 0.790883 0.269333 0.549512
vn 0.802773 0.042047 0.594800
vn 0.965833 0.110667 0.234350
vn 0.642857 0.042844 0.764787
vn 0.802773 0.042047 0.594800
vn 0.790883 0.269333 0.549512
vn 0.564669 -0.341137 0.751515
vn 0.625769 -0.091120 0.774668
vn 0.362956 -0.140868 0.921097
vn 0.790999 -0.179417 0.584918
vn 0.625769 -0.091120 0.774668
vn 0.564669 -0.341137 0.751515
vn 0.811130 -0.534765 0.236844
vn 0.960110 -0.191215 0.204026
vn 0.790999 -0.179417 0.584918
s off
g GrainSack01_1 Mesh1 Model polySurface2 polySurface1
usemtl Sack1
f 10/1/1 1/2/2 2/3/3
f 2/4/4 6/5/5 10/6/6
f 3/8/7 2/7/8 1/9/9
f 4/10/10 2/11/11 3/12/12
f 5/13/13 2/14/14 4/15/15
f 6/18/16 2/16/17 5/17/18
f 7/19/19 9/20/20 6/21/21
f 8/22/22 9/23/23 7/24/24
f 9/25/25 8/26/26 11/27/27
f 10/29/28 6/30/29 9/31/30
f 10/32/31 11/33/32 1/34/33
f 12/35/34 1/36/35 11/37/36
f 12/38/37 44/39/38 15/40/39
f 13/41/40 15/42/41 44/43/42
f 15/44/43 13/45/44 14/46/45
f 15/47/46 16/48/47 12/49/48
f 12/50/49 16/51/50 1/52/51
f 1/53/52 17/54/53 19/55/54
f 1/56/55 16/57/56 17/58/57
f 16/59/58 15/60/59 17/61/60
f 18/62/61 17/63/62 15/64/63
f 17/65/64 18/66/65 19/67/66
f 19/67/67 3/68/68 1/69/69
f 19/70/70 4/71/71 3/72/72
f 4/73/73 19/74/74 20/75/75
f 20/76/76 19/77/77 18/78/78
f 18/79/79 21/80/80 22/81/81
f 23/82/82 22/83/83 21/84/84
f 24/85/85 25/86/86 23/87/87
f 26/88/88 25/89/89 24/90/90
f 25/91/91 26/92/92 27/93/93
f 27/94/94 26/95/95 29/96/96
f 28/97/97 29/98/98 26/99/99
f 8/103/100 7/102/101 30/104/102
f 5/106/103 7/107/104 6/108/105
f 7/109/106 5/110/107 31/111/108
f 4/112/109 20/113/110 5/114/111
f 32/115/112 20/116/113 22/117/114
f 18/118/115 22/119/116 20/120/117
f 23/121/118 33/122/119 22/123/120
f 33/124/121 23/125/122 34/126/123
f 34/127/124 23/128/125 25/129/126
f 25/130/127 27/131/128 34/132/129
f 27/133/130 29/100/131 35/134/132
f 8/135/133 35/136/134 29/137/135
f 35/138/136 8/139/137 30/140/138
f 7/141/139 31/142/140 30/105/141
f 5/143/142 36/144/143 31/145/144
f 36/146/145 5/147/146 20/148/147
f 32/149/148 36/150/149 20/151/150
f 36/152/151 32/153/152 37/154/153
f 33/155/154 32/156/155 22/157/156
f 33/158/157 37/159/158 32/160/159
f 36/162/160 37/163/161 31/161/162
f 37/164/163 41/165/164 31/166/165
f 38/167/166 33/168/167 39/169/168
f 34/170/169 39/171/170 33/172/171
f 40/173/172 39/174/173 34/175/174
f 39/176/175 40/177/176 38/178/177
f 42/179/178 41/180/179 38/181/180
f 30/182/181 41/183/182 42/184/183
f 41/185/184 30/186/185 31/187/186
f 40/188/187 42/189/188 38/190/189
f 42/191/190 40/192/191 27/193/192
f 27/194/193 40/195/194 34/196/195
f 27/197/196 35/198/197 42/199/198
f 35/200/199 30/201/200 42/202/201
f 37/203/202 33/204/203 38/205/204
f 38/206/205 41/207/206 37/208/207
f 29/209/208 28/210/209 8/101/210
f 43/212/211 45/213/212 28/214/213
f 44/215/214 45/216/215 43/217/216
f 45/218/217 44/219/218 12/220/219
f 9/222/220 11/223/221 10/224/222
f 11/225/223 45/226/224 12/221/225
f 28/210/226 45/228/227 46/229/228
f 45/230/229 11/232/230 46/231/231
f 8/233/232 46/234/233 11/28/234
f 46/234/235 8/235/236 28/227/237
f 43/236/238 13/237/239 44/238/240
f 13/239/241 43/240/242 47/241/243
f 26/243/244 47/242/245 43/244/246
f 26/245/247 43/246/248 28/211/249
f 26/247/250 24/248/251 47/249/252
f 47/250/253 24/251/254 14/252/255
f 23/253/256 14/254/257 24/255/258
f 21/256/259 14/257/260 23/258/261
f 15/259/262 21/260/263 18/261/264
f 14/262/265 21/263/266 15/264/267
f 13/265/268 47/266/269 14/267/270
