# This file uses centimeters as units for non-parametric coordinates.

mtllib Windmill_Bot_L.mtl
g default1
v 2.168572 -0.002590 1.026991
v 2.384316 -0.002590 -0.209782
v 2.359031 1.825748 -0.206078
v 1.947544 -0.002590 -1.386820
v 0.984338 -0.002590 -2.192045
v 0.975860 1.825748 -2.173777
v -1.431386 -0.002590 -1.976242
v -1.419803 1.825748 -1.959764
v -2.452355 -0.002590 0.223739
v -2.432294 1.825748 0.221947
v -2.020807 -0.002590 1.402688
v -1.057601 -0.002590 2.207914
v -1.049123 1.825748 2.189645
v 0.179173 -0.002590 2.423658
v 1.358122 -0.002590 1.992110
v 1.394236 1.901485 2.043485
v 2.220310 1.825748 1.055339
v -0.036632 2.867341 0.007934
v 1.998918 1.825748 -1.422933
v -0.258024 1.825748 -2.470337
v -2.293574 1.825748 -1.039470
v -2.072182 1.825748 1.438802
v 0.184761 1.825748 2.486206
v 1.346540 1.825748 1.975633
v -0.252436 -0.002590 -2.407789
v -2.236612 -0.002590 -1.013035
v 1.186961 -0.002590 -2.018713
v 1.185964 0.022855 -2.018268
v 1.710452 1.496299 -1.572058
v 1.720791 0.021716 -1.586410
v 1.174352 1.497384 -2.005907
v 1.121191 1.492496 -1.942253
v 1.657290 1.491410 -1.508404
v 1.722642 -0.002590 -1.585199
v 1.504515 0.803737 1.804552
v 1.988162 0.810105 1.228392
v 1.974488 1.546831 1.232491
v 1.492611 1.546740 1.806337
v 1.892893 0.808755 1.148398
v 1.409245 0.802386 1.724558
v 1.402016 1.545390 1.720776
v 1.879219 1.545480 1.152497
vt 0.733200 0.012100
vt 0.805000 0.012100
vt 0.806600 0.405800
vt 0.876800 0.012100
vt 0.085700 0.012100
vt 0.085800 0.405800
vt 0.229500 0.012100
vt 0.230000 0.405800
vt 0.373400 0.012100
vt 0.374100 0.405800
vt 0.445300 0.012100
vt 0.517200 0.012100
vt 0.518300 0.405800
vt 0.589100 0.012100
vt 0.661100 0.012100
vt 0.280800 1.013100
vt 0.140700 0.975100
vt 0.280800 0.729300
vt 0.000500 0.729300
vt 0.140700 0.483400
vt 0.421000 0.483400
vt 0.561200 0.729300
vt 0.421000 0.975100
vt 0.140700 0.975100
vt 0.280800 1.003600
vt 0.046200 0.866400
vt 0.515500 0.866400
vt 0.561200 0.729300
vt 0.515500 0.592100
vt 0.421000 0.483400
vt 0.140700 0.483400
vt 0.280800 0.454900
vt 0.046200 0.592100
vt 0.000500 0.729300
vt 0.157600 0.012100
vt 0.662400 0.405800
vt 0.301400 0.012100
vt 0.280800 1.013100
vt 0.421000 0.975100
vt 0.070700 0.012100
vt 0.070800 0.017300
vt 0.893700 0.321200
vt 0.030800 0.017100
vt 0.891300 0.847400
vt 0.752900 0.845200
vt 0.891300 0.864100
vt 0.030600 0.321200
vt 0.029900 0.320200
vt 0.071000 0.321400
vt 0.071700 0.320400
vt 0.893800 0.012100
vt 0.893900 0.017100
vt 0.030700 0.012100
vt 0.752900 0.861900
vt 0.674300 0.178400
vt 0.718200 0.179700
vt 0.717500 0.331600
vt 0.673700 0.331600
vt 0.897200 0.924200
vt 0.746100 0.899600
vt 0.897100 0.899300
vt 0.719300 0.179400
vt 0.748500 0.923000
vt 0.897500 0.897700
vt 0.748500 0.898000
vt 0.672900 0.331300
vt 0.673100 0.178100
vt 0.746100 0.924500
vt 0.718700 0.331400
vt 0.899000 0.922600
vt 0.947500 0.389200
vt 0.932800 0.321500
vt 0.948100 0.012800
vt 0.933000 0.017900
vn 0.949025 0.010943 0.315012
vn 0.995749 0.012136 -0.091310
vn 0.972652 0.012250 0.231946
vn 0.995749 0.012136 -0.091310
vn 0.908009 0.011004 -0.418806
vn 0.905514 0.013901 -0.424088
vn 0.244277 0.010936 -0.969644
vn -0.088973 0.011015 -0.995973
vn 0.242677 0.010556 -0.970050
vn -0.995976 0.011079 0.088936
vn -0.995986 0.011015 0.088824
vn -0.906998 0.011054 -0.420991
vn -0.995976 0.011079 0.088936
vn -0.818051 0.011015 0.575040
vn -0.818051 0.011015 0.575040
vn -0.420933 0.011015 0.907025
vn 0.088973 0.011015 0.995973
vn 0.088973 0.011015 0.995973
vn 0.088973 0.011015 0.995973
vn 0.460227 0.010904 0.887734
vn 0.088973 0.011015 0.995973
vn 0.224582 0.920592 0.319490
vn 0.354239 0.920592 0.164396
vn 0.000000 1.000000 0.000000
vn 0.388977 0.920592 -0.034749
vn 0.319490 0.920592 -0.224582
vn 0.000000 1.000000 0.000000
vn 0.164396 0.920592 -0.354239
vn -0.034749 0.920592 -0.388977
vn 0.000000 1.000000 0.000000
vn -0.224582 0.920592 -0.319490
vn -0.354239 0.920592 -0.164395
vn 0.000000 1.000000 0.000000
vn -0.388977 0.920592 0.034749
vn -0.319490 0.920592 0.224582
vn 0.000000 1.000000 0.000000
vn -0.319490 0.920592 0.224582
vn -0.164395 0.920592 0.354239
vn 0.000000 1.000000 0.000000
vn 0.034749 0.920592 0.388977
vn 0.224582 0.920592 0.319490
vn 0.000000 1.000000 0.000000
vn 0.000000 -1.000000 0.000000
vn 0.000000 -1.000000 0.000000
vn 0.000000 -1.000000 0.000000
vn 0.000000 -1.000000 0.000002
vn 0.000000 -1.000000 0.000002
vn 0.000000 -1.000000 0.000000
vn 0.000000 -1.000000 0.000000
vn -0.000203 -1.000000 -0.000022
vn 0.000000 -1.000000 0.000000
vn -0.009924 -0.999940 -0.004578
vn -0.010424 -0.999934 -0.004859
vn -0.000203 -1.000000 -0.000022
vn 0.000000 -1.000000 0.000001
vn 0.000000 -1.000000 0.000000
vn 0.000000 -1.000000 0.000001
vn 0.000000 -1.000000 0.000000
vn 0.000000 -1.000000 0.000000
vn 0.000000 -1.000000 0.000000
vn 0.244277 0.010936 -0.969644
vn -0.088973 0.011015 -0.995973
vn -0.088973 0.011015 -0.995973
vn -0.088973 0.011015 -0.995973
vn -0.088973 0.011015 -0.995973
vn -0.574980 0.011015 -0.818093
vn 0.460227 0.010904 0.887734
vn 0.390573 0.010774 0.920509
vn 0.088973 0.011015 0.995973
vn -0.818051 0.011015 0.575040
vn -0.818051 0.011015 0.575040
vn -0.420933 0.011015 0.907025
vn -0.818051 0.011015 0.575040
vn -0.995986 0.011015 0.088824
vn -0.995976 0.011079 0.088936
vn -0.906998 0.011054 -0.420991
vn -0.574980 0.011015 -0.818093
vn -0.907051 0.011118 -0.420875
vn -0.906998 0.011054 -0.420991
vn -0.907051 0.011118 -0.420875
vn -0.995976 0.011079 0.088936
vn 0.000000 -1.000000 0.000000
vn 0.000000 -1.000000 0.000000
vn -0.000203 -1.000000 -0.000022
vn -0.009924 -0.999940 -0.004578
vn 0.000000 -1.000000 0.000000
vn -0.000147 -1.000000 -0.000140
vn 0.000000 -1.000000 0.000001
vn 0.000000 -1.000000 0.000000
vn 0.000000 -1.000000 0.000000
vn 0.000000 -1.000000 0.000000
vn 0.000000 -1.000000 0.000000
vn 0.000000 -1.000000 0.000000
vn 0.000000 -1.000000 0.000000
vn 0.000000 -1.000000 0.000000
vn 0.000000 -1.000000 0.000000
vn 0.000000 -1.000000 0.000000
vn 0.000000 -1.000000 0.000000
vn 0.000000 -1.000000 0.000002
vn 0.000000 -1.000000 -0.000004
vn 0.000000 -1.000000 -0.000004
vn 0.000000 -1.000000 0.000000
vn 0.633872 0.037893 -0.772509
vn 0.244277 0.010936 -0.969644
vn 0.651023 0.012938 -0.758947
vn 0.905514 0.013901 -0.424088
vn 0.908009 0.011004 -0.418806
vn 0.650236 0.016533 -0.759552
vn 0.660245 0.011875 -0.750957
vn 0.633872 0.037893 -0.772509
vn 0.651023 0.012938 -0.758947
vn 0.035814 -0.998264 -0.046749
vn 0.035814 -0.998264 -0.046749
vn 0.035814 -0.998264 -0.046749
vn -0.766985 0.002300 -0.641661
vn -0.682809 0.431901 -0.589266
vn -0.767612 0.002344 -0.640911
vn 0.767505 0.000670 0.641043
vn 0.767505 0.000670 0.641043
vn 0.767505 0.000670 0.641043
vn 0.908009 0.011004 -0.418806
vn 0.639808 0.010431 -0.768464
vn 0.660245 0.011875 -0.750957
vn 0.660245 0.011875 -0.750957
vn 0.639808 0.010431 -0.768464
vn 0.633872 0.037893 -0.772509
vn 0.035819 -0.998264 -0.046759
vn 0.035819 -0.998264 -0.046759
vn 0.035819 -0.998264 -0.046759
vn 0.390573 0.010774 0.920509
vn 0.460227 0.010904 0.887734
vn 0.765683 0.010587 0.643131
vn 0.949025 0.010943 0.315012
vn 0.972652 0.012250 0.231946
vn 0.765768 0.010618 0.643030
vn 0.765683 0.010587 0.643131
vn 0.460227 0.010904 0.887734
vn 0.765768 0.010618 0.643030
vn 0.765768 0.010618 0.643030
vn 0.972652 0.012250 0.231946
vn 0.765750 0.010645 0.643050
vn 0.972652 0.012250 0.231946
vn 0.390573 0.010774 0.920509
vn 0.765750 0.010645 0.643050
vn 0.390573 0.010774 0.920509
vn 0.765683 0.010587 0.643131
vn 0.765761 0.010723 0.643035
vn 0.765750 0.010645 0.643050
vn 0.390573 0.010774 0.920509
vn 0.765761 0.010723 0.643035
vn 0.460227 0.010904 0.887734
vn 0.949025 0.010943 0.315012
vn 0.765768 0.010618 0.643030
vn -0.013759 0.999905 -0.000497
vn -0.013759 0.999905 -0.000497
vn -0.013759 0.999905 -0.000497
vn -0.642822 -0.016193 0.765845
vn -0.642822 -0.016193 0.765844
vn -0.642822 -0.016193 0.765845
vn 0.008392 -0.999941 0.006888
vn 0.008392 -0.999941 0.006888
vn 0.008392 -0.999941 0.006888
vn 0.686466 0.012745 -0.727050
vn 0.686466 0.012745 -0.727050
vn 0.686466 0.012745 -0.727050
vn 0.643018 0.002358 -0.765848
vn 0.643018 0.002358 -0.765847
vn 0.643018 0.002358 -0.765848
vn -0.013759 0.999905 -0.000496
vn -0.013759 0.999905 -0.000496
vn -0.013759 0.999905 -0.000496
vn -0.642823 -0.016191 0.765844
vn -0.642823 -0.016191 0.765844
vn -0.642823 -0.016191 0.765844
vn 0.008393 -0.999941 0.006890
vn 0.008393 -0.999941 0.006890
vn 0.008393 -0.999941 0.006890
vn 0.908009 0.011004 -0.418806
vn 0.660245 0.011875 -0.750957
vn 0.650236 0.016533 -0.759552
vn 0.650236 0.016533 -0.759552
vn 0.242677 0.010556 -0.970050
vn 0.905514 0.013901 -0.424088
vn 0.647680 0.002209 -0.761909
vn 0.244277 0.010936 -0.969644
vn 0.242677 0.010556 -0.970050
vn 0.242677 0.010556 -0.970050
vn 0.650236 0.016533 -0.759552
vn 0.647680 0.002209 -0.761909
vn 0.647680 0.002209 -0.761909
vn 0.651023 0.012938 -0.758947
vn 0.244277 0.010936 -0.969644
vn 0.000000 -1.000000 0.000000
vn 0.000000 -1.000000 0.000000
vn 0.000000 -1.000000 0.000000
vn 0.000000 -1.000000 0.000000
vn 0.000000 -1.000000 0.000000
vn 0.000000 -1.000000 0.000000
vn 0.000000 -1.000000 0.000000
vn 0.000000 -1.000000 0.000000
vn 0.000000 -1.000000 0.000000
vn 0.000000 -1.000000 0.000000
vn 0.000000 -1.000000 0.000000
vn 0.000000 -1.000000 0.000000
vn 0.000000 -1.000000 0.000000
vn 0.000000 -1.000000 0.000000
s off
g Mill_2 initialShadingGroup initialShadingGroup1 polySurface1
f 1/1/1 2/2/2 3/3/3
f 2/2/4 4/4/5 3/3/6
f 5/5/7 8/8/8 6/6/9
f 9/9/10 10/10/11 8/8/12
f 9/9/13 11/11/14 13/13/15
f 12/12/16 14/14/17 13/13/18
f 14/14/19 15/15/20 13/13/21
f 16/16/22 17/17/23 18/18/24
f 17/17/25 19/19/26 18/18/27
f 19/19/28 20/20/29 18/18/30
f 20/20/31 21/21/32 18/18/33
f 21/21/34 22/22/35 18/18/36
f 22/22/37 23/23/38 18/18/39
f 23/23/40 16/16/41 18/18/42
f 17/24/43 24/25/44 3/26/45
f 23/39/46 13/27/47 24/25/48
f 22/28/49 10/29/50 13/27/51
f 21/30/52 8/32/53 10/29/54
f 20/31/55 6/33/56 8/32/57
f 19/34/58 3/26/59 6/33/60
f 5/5/61 25/35/62 8/8/63
f 8/8/64 25/35/65 7/7/66
f 15/15/67 24/36/68 13/13/69
f 13/13/70 11/11/71 12/12/72
f 13/13/73 10/10/74 9/9/75
f 8/8/76 7/7/77 26/37/78
f 8/8/79 26/37/80 9/9/81
f 22/28/82 21/30/83 10/29/84
f 21/30/85 20/31/86 8/32/87
f 20/31/88 19/34/89 6/33/90
f 19/34/91 17/24/92 3/26/93
f 17/24/94 16/38/95 24/25/96
f 24/25/97 16/38/98 23/39/99
f 13/27/100 23/39/101 22/28/102
f 27/40/103 5/5/104 28/41/105
f 3/3/106 4/4/107 29/42/108
f 30/43/109 27/40/110 28/41/111
f 31/44/112 29/45/113 32/46/114
f 29/47/115 30/43/116 33/48/117
f 28/41/118 31/49/119 32/50/120
f 4/4/121 34/51/122 30/52/123
f 30/43/124 34/53/125 27/40/126
f 29/45/127 33/54/128 32/46/129
f 24/36/130 15/15/131 35/55/132
f 1/1/133 3/3/134 36/56/135
f 35/55/136 15/15/137 36/56/138
f 36/56/139 3/3/140 37/57/141
f 3/3/142 24/36/143 37/57/144
f 24/36/145 35/55/146 38/58/147
f 37/57/148 24/36/149 38/58/150
f 15/15/151 1/1/152 36/56/153
f 35/59/154 39/60/155 40/61/156
f 36/56/157 37/57/158 39/62/159
f 37/63/160 41/64/161 42/65/162
f 38/58/163 35/55/164 41/66/165
f 35/55/166 40/67/167 41/66/168
f 35/59/169 36/68/170 39/60/171
f 37/57/172 42/69/173 39/62/174
f 37/63/175 38/70/176 41/64/177
f 4/4/178 30/52/179 29/42/180
f 29/42/181 6/71/182 3/3/183
f 31/72/184 5/73/185 6/71/186
f 6/71/187 29/42/188 31/72/189
f 31/72/190 28/74/191 5/73/192
f 2/2/193 1/1/194 15/15/195 14/14/196 12/12/197 11/11/198 9/9/199 26/37/200 7/7/201 25/35/202 5/5/203 27/40/204 34/51/205 4/4/206
