# This file uses centimeters as units for non-parametric coordinates.

mtllib Windmill_Top_M.mtl
g default1
v -2.068715 1.985127 1.139419
v 1.552588 1.985127 1.777952
v 1.807607 3.614310 0.331667
v 2.062626 1.985127 -1.114619
v -1.558677 1.985127 -1.753152
v -2.189129 1.861155 1.215767
v 1.639625 1.861155 1.890880
v -1.645716 1.861155 -1.866080
v 2.183040 1.861155 -1.190968
v -1.917423 3.697942 -0.325156
v -1.813697 3.614310 -0.306867
v 1.911333 3.697942 0.349956
v 1.917313 -3.142426 -0.799775
v 1.565716 -2.573454 1.775157
v 1.183952 -3.142426 1.630809
v 1.700637 -3.142426 0.429058
v 0.330175 -3.142426 -1.079630
v -0.411875 -3.142426 1.128477
v 1.621720 -2.573454 -0.851896
v -1.101372 -3.142426 -1.589137
v -1.362013 -3.142426 -0.110969
v 1.665685 -2.573454 -1.101231
v 2.074007 -2.573454 -1.107502
v 1.183952 -2.573454 1.630809
v 1.517329 -2.573454 1.468648
v 1.444815 -2.573454 0.151386
v 1.819862 -2.573454 0.333828
v 1.405043 -2.573454 0.376938
v 0.032074 -2.573454 -1.389280
v 0.374140 -2.573454 -1.328965
v -0.011891 -2.573454 -1.139946
v -0.449658 -2.573454 1.342759
v -0.411875 -2.573454 1.128477
v -0.069809 -2.573454 1.188793
v -1.657684 -2.573454 -0.395669
v -1.825951 -2.573454 -0.309027
v -1.571805 -2.573454 -1.750357
v -1.480779 -2.573454 -1.398950
v -1.880763 -2.573454 0.869472
v -1.918547 -3.142426 1.083755
v -1.583104 -2.573454 1.142902
v -2.080096 -2.573454 1.132302
v -1.101372 -2.573454 -1.589137
v -1.362013 -2.573454 -0.110969
vt 0.030000 0.109500
vt 0.030000 0.030300
vt 0.276800 0.030000
vt 0.030000 0.744800
vt 0.276800 0.745400
vt 0.276800 0.925000
vt 0.030000 0.419700
vt 0.030000 0.340500
vt 0.365000 0.340500
vt 0.030000 0.261300
vt 0.276800 0.261000
vt 0.030000 0.672800
vt 0.030000 0.492000
vt 0.276800 0.492600
vt 0.879700 0.129400
vt 0.689800 0.129400
vt 0.680900 0.360400
vt 0.870800 0.360400
vt 0.348800 0.492000
vt 0.353900 0.492000
vt 0.353900 0.610700
vt 0.689800 0.030000
vt 0.437000 0.261000
vt 0.442100 0.261000
vt 0.437000 0.388200
vt 0.437000 0.030000
vt 0.603000 0.673200
vt 0.572200 0.687800
vt 0.379600 0.913300
vt 0.379600 0.927000
vt 0.482400 0.840300
vt 0.451600 0.826600
vt 0.955500 0.364300
vt 0.924700 0.364300
vt 0.705800 0.855100
vt 0.675000 0.855100
vt 0.705800 0.843300
vt 0.386900 0.525800
vt 0.401600 0.556600
vt 0.489800 0.295200
vt 0.475100 0.326000
vt 0.603000 0.857900
vt 0.572200 0.845500
vt 0.499200 0.574600
vt 0.468400 0.591600
vt 0.450400 0.574600
vt 0.450400 0.591600
vt 0.419600 0.574600
vt 0.846900 0.592300
vt 0.816100 0.578600
vt 0.450400 0.556600
vt 0.419600 0.556600
vt 0.419600 0.539700
vt 0.808600 0.770700
vt 0.777800 0.770700
vt 0.482200 0.525800
vt 0.482200 0.556600
vt 0.808600 0.685600
vt 0.777800 0.673200
vt 0.955500 0.261000
vt 0.924700 0.277600
vt 0.587400 0.360600
vt 0.556600 0.344000
vt 0.949700 0.505700
vt 0.918900 0.505700
vt 0.964500 0.030000
vt 0.933700 0.046600
vt 0.538600 0.326000
vt 0.507800 0.309300
vt 0.949700 0.589500
vt 0.918900 0.577700
vt 0.570700 0.295200
vt 0.570700 0.326000
vt 0.538600 0.360600
vt 0.507800 0.360600
vt 0.617800 0.188500
vt 0.870800 0.261000
vt 0.680900 0.261000
vt 0.879700 0.030000
vt 0.621700 0.379700
vt 0.621700 0.261000
vt 0.626900 0.261000
vt 0.533500 0.610700
vt 0.538700 0.619200
vt 0.348800 0.619200
vt 0.626900 0.388200
vt 0.533500 0.492000
vt 0.538700 0.492000
vt 0.442100 0.379700
vt 0.276800 0.672200
vt 0.276800 0.420000
vt 0.030000 0.925600
vt 0.365000 0.109500
vt 0.437000 0.188500
vt 0.610400 0.045900
vt 0.617800 0.030000
vt 0.610400 0.115400
vt 0.617800 0.109200
vt 0.441900 0.045900
vt 0.456500 0.184300
vt 0.610400 0.170600
vt 0.816100 0.492000
vt 0.846900 0.492000
vt 0.846900 0.506600
vt 0.537600 0.184300
vt 0.537600 0.170600
vt 0.593800 0.184300
vt 0.520600 0.184300
vt 0.456500 0.170600
vt 0.437000 0.109200
vt 0.537600 0.034100
vt 0.456500 0.034100
vt 0.456500 0.115400
vt 0.456500 0.103000
vt 0.520600 0.045900
vt 0.537600 0.045900
vt 0.593800 0.034100
vt 0.593800 0.103000
vt 0.030000 0.188700
vt 0.276800 0.189000
vt 0.348800 0.927000
vt 0.955500 0.349600
vt 0.475100 0.295200
vt 0.538600 0.309300
vt 0.587400 0.344000
vt 0.538600 0.344000
vt 0.603000 0.845500
vt 0.401600 0.525800
vt 0.482400 0.826600
vt 0.603000 0.687800
vt 0.846900 0.578600
vt 0.499200 0.591600
vt 0.949700 0.492000
vt 0.964500 0.046600
vt 0.808600 0.758900
vt 0.499200 0.525800
vt 0.949700 0.577700
vt 0.587400 0.295200
vt 0.808600 0.673200
vt 0.955500 0.277600
vn -0.984804 0.002730 -0.173647
vn -0.984804 0.002730 -0.173647
vn -0.984804 0.002730 -0.173647
vn -0.173648 -0.001104 0.984807
vn -0.173648 -0.001104 0.984807
vn -0.173648 -0.001104 0.984807
vn 0.984806 0.002011 0.173648
vn 0.984806 0.002011 0.173648
vn 0.984806 0.002011 0.173648
vn 0.985325 0.002726 0.170668
vn 0.985325 0.002726 0.170668
vn 0.985325 0.002726 0.170668
vn 0.173648 -0.001104 -0.984807
vn 0.173648 -0.001104 -0.984807
vn 0.173648 -0.001104 -0.984807
vn 0.128979 -0.669551 -0.731482
vn 0.128979 -0.669551 -0.731482
vn 0.128979 -0.669551 -0.731482
vn -0.129554 0.665868 0.734735
vn -0.129554 0.665868 0.734735
vn -0.129554 0.665868 0.734735
vn -0.129553 -0.665868 0.734735
vn -0.129553 -0.665868 0.734735
vn -0.129553 -0.665868 0.734735
vn 0.984808 0.000000 0.173646
vn 0.984808 0.000000 0.173646
vn 0.984808 0.000000 0.173646
vn 0.984807 0.000000 0.173650
vn 0.984807 0.000000 0.173650
vn 0.984807 0.000000 0.173650
vn -0.173649 0.000000 0.984808
vn -0.173649 0.000000 0.984808
vn -0.173649 0.000000 0.984808
vn -0.173649 0.000000 0.984808
vn -0.173649 0.000000 0.984808
vn -0.173649 0.000000 0.984808
vn 0.173649 0.000000 -0.984808
vn 0.173649 0.000000 -0.984808
vn 0.173649 0.000000 -0.984808
vn 0.129553 0.665869 -0.734735
vn 0.129554 0.665869 -0.734735
vn 0.129553 0.665869 -0.734735
vn 0.129554 0.665868 -0.734735
vn 0.129554 0.665868 -0.734735
vn 0.129554 0.665868 -0.734735
vn -0.129554 0.665869 0.734735
vn -0.129554 0.665869 0.734735
vn -0.129554 0.665869 0.734735
vn -0.128967 -0.669554 0.731482
vn -0.128967 -0.669554 0.731482
vn -0.128967 -0.669554 0.731482
vn 0.137244 -0.612658 -0.778341
vn 0.137244 -0.612658 -0.778341
vn 0.137244 -0.612658 -0.778341
vn 0.229812 -0.662365 -0.713063
vn 0.229812 -0.662365 -0.713063
vn 0.229812 -0.662365 -0.713063
vn -0.027931 -0.662360 0.748665
vn -0.027931 -0.662360 0.748665
vn -0.027931 -0.662360 0.748665
vn -0.137243 -0.612653 0.778345
vn -0.137243 -0.612653 0.778345
vn -0.137243 -0.612653 0.778345
vn 0.129554 -0.665869 -0.734734
vn 0.129554 -0.665869 -0.734734
vn 0.129554 -0.665869 -0.734734
vn 0.020146 -0.665509 -0.746118
vn 0.020146 -0.665509 -0.746118
vn 0.020146 -0.665509 -0.746118
vn -0.236260 -0.665509 0.708010
vn -0.236260 -0.665509 0.708010
vn -0.236260 -0.665509 0.708010
vn -0.137243 -0.612651 0.778347
vn -0.137243 -0.612651 0.778347
vn -0.137243 -0.612651 0.778347
vn 0.137243 -0.612651 -0.778346
vn 0.137243 -0.612651 -0.778346
vn 0.137243 -0.612651 -0.778346
vn 0.173648 -0.001104 -0.984807
vn 0.173648 -0.001104 -0.984807
vn 0.173648 -0.001104 -0.984807
vn 0.984806 0.002011 0.173648
vn 0.984806 0.002011 0.173648
vn 0.984806 0.002011 0.173648
vn 0.984274 0.002726 0.176625
vn 0.984274 0.002726 0.176625
vn 0.984275 0.002726 0.176625
vn -0.173648 -0.001104 0.984807
vn -0.173648 -0.001104 0.984807
vn -0.173648 -0.001104 0.984807
vn -0.985191 0.002011 -0.171450
vn -0.985191 0.002011 -0.171450
vn -0.985191 0.002011 -0.171450
vn 0.173649 0.000000 -0.984808
vn 0.173649 0.000000 -0.984808
vn 0.173649 0.000000 -0.984808
vn 0.000000 -1.000000 0.000000
vn 0.000000 -1.000000 0.000000
vn 0.000000 -1.000000 0.000000
vn 0.000000 -1.000000 0.000000
vn 0.000000 -1.000000 0.000000
vn 0.000000 -1.000000 0.000000
vn 0.000000 -1.000000 0.000041
vn 0.000000 -1.000000 0.000041
vn 0.000000 -1.000000 0.000041
vn 0.000000 -1.000000 0.000000
vn 0.000000 -1.000000 0.000000
vn 0.000000 -1.000000 0.000000
vn 0.000000 -1.000000 0.000000
vn 0.000000 -1.000000 0.000000
vn 0.000000 -1.000000 0.000000
vn 0.000000 -1.000000 -0.000003
vn 0.000000 -1.000000 -0.000003
vn 0.000000 -1.000000 -0.000003
vn 0.000000 -1.000000 -0.000001
vn 0.000000 -1.000000 -0.000001
vn 0.000000 -1.000000 -0.000001
vn 0.000000 -1.000000 0.000000
vn 0.000000 -1.000000 0.000000
vn 0.000000 -1.000000 0.000000
vn 0.000000 -1.000000 0.000011
vn 0.000000 -1.000000 0.000011
vn 0.000000 -1.000000 0.000011
vn 0.000000 -1.000000 0.000006
vn 0.000000 -1.000000 0.000006
vn 0.000000 -1.000000 0.000006
vn 0.000000 -1.000000 0.000004
vn 0.000000 -1.000000 0.000004
vn 0.000000 -1.000000 0.000004
vn 0.000000 -1.000000 0.000000
vn 0.000000 -1.000000 0.000000
vn 0.000000 -1.000000 0.000000
vn 0.000000 -1.000000 -0.000001
vn 0.000000 -1.000000 -0.000001
vn 0.000000 -1.000000 -0.000001
vn 0.000000 -1.000000 0.000001
vn 0.000000 -1.000000 0.000001
vn 0.000000 -1.000000 0.000001
vn 0.000000 -1.000000 -0.000001
vn 0.000000 -1.000000 -0.000001
vn 0.000000 -1.000000 -0.000001
vn 0.000000 -1.000000 0.000000
vn 0.000000 -1.000000 0.000000
vn 0.000000 -1.000000 0.000000
vn 0.000000 -1.000000 0.000000
vn 0.000000 -1.000000 0.000000
vn 0.000000 -1.000000 0.000000
vn 0.000000 -1.000000 -0.000002
vn 0.000000 -1.000000 -0.000002
vn 0.000000 -1.000000 -0.000002
vn 0.000000 -1.000000 -0.000002
vn 0.000000 -1.000000 -0.000002
vn 0.000000 -1.000000 -0.000002
vn 0.000000 -1.000000 0.000000
vn 0.000000 -1.000000 0.000000
vn 0.000000 -1.000000 0.000000
vn 0.000000 -1.000000 0.000001
vn 0.000000 -1.000000 0.000001
vn 0.000000 -1.000000 0.000001
vn 0.000000 -1.000000 0.000000
vn 0.000000 -1.000000 0.000000
vn 0.000000 -1.000000 0.000000
vn 0.000000 -1.000000 0.000000
vn 0.000000 -1.000000 0.000000
vn 0.000000 -1.000000 0.000000
vn 0.000000 -1.000000 0.000000
vn 0.000000 -1.000000 0.000000
vn 0.000000 -1.000000 0.000000
vn 0.000000 -1.000000 0.000000
vn 0.000000 -1.000000 0.000000
vn 0.000000 -1.000000 0.000000
vn 0.000000 -1.000000 0.000001
vn 0.000000 -1.000000 0.000001
vn 0.000000 -1.000000 0.000001
vn 0.000000 -1.000000 0.000000
vn 0.000000 -1.000000 0.000000
vn 0.000000 -1.000000 0.000000
vn 0.000000 -1.000000 0.000000
vn 0.000000 -1.000000 0.000000
vn 0.000000 -1.000000 0.000000
vn 0.000000 -1.000000 0.000000
vn 0.000000 -1.000000 0.000000
vn 0.000000 -1.000000 0.000000
vn 0.000000 -1.000000 0.000000
vn 0.000000 -1.000000 0.000000
vn 0.000000 -1.000000 0.000000
vn 0.000000 -1.000000 0.000000
vn 0.000000 -1.000000 0.000000
vn 0.000000 -1.000000 0.000000
vn 0.000000 -1.000000 0.000000
vn 0.000000 -1.000000 0.000000
vn 0.000000 -1.000000 0.000000
vn -0.984804 0.002730 -0.173648
vn -0.984804 0.002730 -0.173648
vn -0.984804 0.002730 -0.173648
vn -0.984416 0.002011 -0.175845
vn -0.984416 0.002011 -0.175845
vn -0.984416 0.002011 -0.175845
vn -0.173648 0.000000 0.984808
vn -0.173648 0.000000 0.984808
vn -0.173648 0.000000 0.984808
vn -0.173646 0.000000 0.984808
vn -0.173646 0.000000 0.984808
vn -0.173646 0.000000 0.984808
vn -0.173647 0.000000 0.984808
vn -0.173647 0.000000 0.984808
vn -0.173647 0.000000 0.984808
vn -0.173647 0.000000 0.984808
vn -0.173647 0.000000 0.984808
vn -0.173647 0.000000 0.984808
vn -0.173646 0.000000 0.984808
vn -0.173646 0.000000 0.984808
vn -0.173646 0.000000 0.984808
vn -0.984807 0.000000 -0.173650
vn -0.984807 0.000000 -0.173650
vn -0.984807 0.000000 -0.173650
vn 0.173649 0.000000 -0.984808
vn 0.173649 0.000000 -0.984808
vn 0.173649 0.000000 -0.984808
vn -0.984808 0.000000 -0.173649
vn -0.984808 0.000000 -0.173649
vn -0.984808 0.000000 -0.173649
vn 0.173649 0.000000 -0.984808
vn 0.173649 0.000000 -0.984808
vn 0.173649 0.000000 -0.984808
vn -0.984808 0.000000 -0.173649
vn -0.984808 0.000000 -0.173649
vn -0.984808 0.000000 -0.173649
vn 0.173649 0.000000 -0.984808
vn 0.173649 0.000000 -0.984808
vn 0.173649 0.000000 -0.984808
vn -0.984809 0.000000 -0.173644
vn -0.984809 0.000000 -0.173644
vn -0.984809 0.000000 -0.173644
vn 0.173649 0.000000 -0.984808
vn 0.173649 0.000000 -0.984808
vn 0.173649 0.000000 -0.984808
vn -0.984808 0.000000 -0.173647
vn -0.984808 0.000000 -0.173647
vn -0.984808 0.000000 -0.173647
vn -0.984808 0.000000 -0.173647
vn -0.984808 0.000000 -0.173647
vn -0.984808 0.000000 -0.173647
vn 0.173650 0.000000 -0.984807
vn 0.173650 0.000000 -0.984807
vn 0.173650 0.000000 -0.984807
vn -0.984807 0.000000 -0.173651
vn -0.984807 0.000000 -0.173651
vn -0.984807 0.000000 -0.173651
vn 0.173647 0.000000 -0.984808
vn 0.173647 0.000000 -0.984808
vn 0.173647 0.000000 -0.984808
s off
g Mill_1 initialShadingGroup initialShadingGroup1 polySurface1
f 36/1/1 42/2/2 1/3/3
f 14/4/4 2/5/5 1/6/6
f 14/7/7 27/8/8 3/9/9
f 23/10/10 4/11/11 3/9/12
f 23/12/13 37/13/14 5/14/15
f 10/19/16 11/20/17 1/21/18
f 6/15/19 7/16/20 12/22/21
f 12/23/22 3/24/23 9/25/24
f 23/29/25 19/30/26 13/121/27
f 14/35/28 15/36/29 25/37/30
f 30/46/31 31/47/32 17/48/33
f 32/51/34 18/52/35 34/53/36
f 33/56/37 34/136/38 18/57/39
f 12/77/40 9/18/41 8/17/42
f 12/77/43 8/17/44 10/78/45
f 12/22/46 10/79/47 6/15/48
f 5/80/49 11/81/50 10/82/51
f 2/83/52 7/84/53 6/85/54
f 1/21/55 6/85/56 10/19/57
f 10/82/58 8/86/59 5/80/60
f 5/80/61 8/86/62 9/25/63
f 3/87/64 12/88/65 7/84/66
f 7/84/67 2/83/68 3/87/69
f 3/24/70 4/89/71 9/25/72
f 9/25/73 4/89/74 5/80/75
f 6/85/76 1/21/77 2/83/78
f 5/14/79 4/90/80 23/12/81
f 3/9/82 27/8/83 23/10/84
f 3/9/85 2/91/86 14/7/87
f 1/6/88 42/92/89 14/4/90
f 1/3/91 11/93/92 36/1/93
f 25/104/94 15/102/95 24/103/96
f 22/100/97 37/76/98 23/94/99
f 43/107/100 37/76/101 29/105/102
f 30/108/103 29/105/104 37/76/105
f 22/100/106 30/108/107 37/76/108
f 31/106/109 43/107/110 29/105/111
f 19/109/112 30/108/113 22/100/114
f 23/94/115 27/110/116 19/109/117
f 25/99/118 27/110/119 14/26/120
f 24/112/121 14/26/122 32/111/123
f 41/117/124 32/111/125 42/96/126
f 42/96/127 32/111/128 14/26/129
f 39/95/130 42/96/131 36/98/132
f 36/98/133 37/76/134 38/101/135
f 38/101/136 35/97/137 36/98/138
f 24/112/139 27/110/140 25/99/141
f 26/113/142 19/109/143 27/110/144
f 24/112/145 28/114/146 27/110/147
f 34/115/148 24/112/149 32/111/150
f 33/116/151 32/111/152 41/117/153
f 44/118/154 39/95/155 36/98/156
f 44/118/157 41/117/158 39/95/159
f 43/107/160 35/97/161 38/101/162
f 43/107/163 44/118/164 35/97/165
f 31/106/166 44/118/167 43/107/168
f 44/118/169 33/116/170 41/117/171
f 19/109/172 26/113/173 30/108/174
f 28/114/175 24/112/176 34/115/177
f 26/113/178 28/114/179 34/115/180
f 26/113/181 34/115/182 30/108/183
f 30/108/184 34/115/185 31/106/186
f 33/116/187 44/118/188 31/106/189
f 31/106/190 34/115/191 33/116/192
f 37/119/193 36/1/194 5/120/195
f 36/1/196 11/93/197 5/120/198
f 15/34/199 14/122/200 24/33/201
f 16/41/202 27/123/203 28/40/204
f 20/69/205 43/124/206 38/68/207
f 21/63/208 44/125/209 36/62/210
f 40/75/211 41/126/212 42/74/213
f 16/43/214 28/127/215 26/42/216
f 26/38/217 27/128/218 16/39/219
f 13/32/220 19/129/221 22/31/222
f 22/27/223 23/130/224 13/28/225
f 17/50/226 31/131/227 29/49/228
f 29/44/229 30/132/230 17/45/231
f 20/65/232 38/133/233 37/64/234
f 37/66/235 43/134/236 20/67/237
f 18/55/238 32/135/239 33/54/240
f 40/71/241 42/137/242 39/70/243
f 39/72/244 41/138/245 40/73/246
f 21/59/247 36/139/248 35/58/249
f 35/60/250 44/140/251 21/61/252
